<svg xmlns="http://www.w3.org/2000/svg" viewBox="0 0 16 16" width="512" height="512" style="image-rendering:pixelated">
  <rect width="16" height="16" rx="3" fill="#3B1C1C"/>
  <rect x="5" y="2" width="6" height="1" fill="#DAA520"/>
  <rect x="4" y="3" width="8" height="1" fill="#FFD700"/>
  <rect x="3" y="4" width="10" height="1" fill="#FFD700"/>
  <rect x="3" y="5" width="10" height="1" fill="#FFD700"/>
  <rect x="3" y="6" width="10" height="1" fill="#DAA520"/>
  <rect x="3" y="7" width="10" height="1" fill="#FFD700"/>
  <rect x="3" y="8" width="10" height="1" fill="#FFD700"/>
  <rect x="3" y="9" width="10" height="1" fill="#FFD700"/>
  <rect x="3" y="10" width="10" height="1" fill="#DAA520"/>
  <rect x="3" y="11" width="10" height="1" fill="#FFD700"/>
  <rect x="4" y="12" width="8" height="1" fill="#FFD700"/>
  <rect x="5" y="13" width="6" height="1" fill="#DAA520"/>
  <!-- lotus -->
  <rect x="6" y="5" width="4" height="1" fill="#E8A0B0"/>
  <rect x="5" y="6" width="6" height="2" fill="#E8A0B0"/>
  <rect x="6" y="6" width="4" height="2" fill="#FFE4E9"/>
  <rect x="7" y="7" width="2" height="1" fill="#DAA520"/>
  <rect x="5" y="8" width="6" height="1" fill="#E8A0B0"/>
  <rect x="6" y="9" width="4" height="1" fill="#4A7848"/>
</svg>
